<?xml version="1.0" encoding="UTF-8"?>
<svg width="143.77" height="50" version="1.1" viewBox="0 0 143.77 50" xml:space="preserve" xmlns="http://www.w3.org/2000/svg" xmlns:cc="http://creativecommons.org/ns#" xmlns:dc="http://purl.org/dc/elements/1.1/" xmlns:rdf="http://www.w3.org/1999/02/22-rdf-syntax-ns#"><metadata><rdf:RDF><cc:Work rdf:about=""><dc:format>image/svg+xml</dc:format><dc:type rdf:resource="http://purl.org/dc/dcmitype/StillImage"/><dc:title/></cc:Work></rdf:RDF></metadata><g transform="matrix(.58118 0 0 -.58118 0 50)"><g transform="scale(.1)" fill="#fff"><path d="m17.422 416.04c-11.613 0-17.422 6.223-17.422 18.66v319.58c0 12.445 5.8086 18.668 17.422 18.668h86.867c76.32 0 127.97-15.43 154.94-46.289 26.964-30.871 40.445-74.754 40.445-131.66 0-56.93-13.481-100.99-40.445-132.16-26.965-31.199-78.618-46.801-154.94-46.801zm55.25 61.73h26.879c51.441 0 84.711 9.571 99.808 28.731 15.102 19.18 22.661 48.672 22.661 88.5 0 39.809-7.559 69.226-22.661 88.219-15.097 19.004-48.367 28.507-99.808 28.507h-26.879v-233.96"/><path d="m375.4 416.04c-11.605 0-17.414 6.223-17.414 18.66v319.58c0 12.445 5.809 18.668 17.414 18.668h213.55c12.442 0 18.672-5.39 18.672-16.168v-29.383c0-10.777-6.23-16.168-18.672-16.168h-158.3v-79.16h145.11c12.441 0 18.672-5.402 18.672-16.183v-29.36c0-10.777-6.231-16.168-18.672-16.168h-145.11v-92.59h166.27c12.437 0 18.668-5.402 18.668-16.187v-29.371c0-10.781-6.231-16.172-18.668-16.172h-221.52"/><path d="m693.99 416.04c-11.621 0-17.422 6.223-17.422 18.66v319.58c0 12.445 5.801 18.668 17.422 18.668h196.88c12.438 0 18.668-5.39 18.668-16.168v-29.383c0-10.777-6.23-16.168-18.668-16.168h-141.63v-86.632h121.22c12.438 0 18.668-5.391 18.668-16.172v-29.367c0-10.797-6.23-16.168-18.668-16.168h-121.22v-128.19c0-12.437-5.812-18.66-17.422-18.66h-37.828"/><path d="m986.7 416.04c-11.613 0-17.422 6.223-17.422 18.66v319.58c0 12.445 5.809 18.668 17.422 18.668h37.825c11.62 0 17.42-6.223 17.42-18.668v-319.58c0-12.437-5.8-18.66-17.42-18.66h-37.825"/><path d="m453.78 799.34c-11.086 0-13.156 5.297-6.199 15.926l21.852 33.351c5.129 7.801 14.16 11.707 27.066 11.707h43.723c14.902 0 16.879-5.078 5.961-15.187l-39.242-36.348c-6.786-6.301-15.977-9.449-27.567-9.449h-25.594"/><path d="m1194.5 756.52c-4.11 10.95-0.63 16.43 10.44 16.43h36.64c10.29 0 17.52-5.719 21.7-17.168l76.5-207.84c5.29-10.621 8.37-17.707 9.3-21.269 0.91-3.567 1.94-9.496 3.09-17.797h1.37c1.16 8.301 2.19 14.23 3.11 17.797 0.91 3.562 3.99 10.648 9.28 21.269l76.52 207.84c4.16 11.449 11.4 17.168 21.7 17.168h36.64c11.06 0 14.54-5.48 10.44-16.43l-117.75-320.32c-4.94-13.461-12.68-20.16-23.27-20.16h-34.7c-10.59 0-18.34 6.699-23.27 20.16l-117.74 320.32"/><path d="m1575.9 416.04c-11.62 0-17.42 6.223-17.42 18.66v319.58c0 12.445 5.8 18.668 17.42 18.668h213.54c12.44 0 18.68-5.39 18.68-16.168v-29.383c0-10.777-6.24-16.168-18.68-16.168h-158.3v-79.16h145.12c12.44 0 18.66-5.402 18.66-16.183v-29.36c0-10.777-6.22-16.168-18.66-16.168h-145.12v-92.59h166.27c12.44 0 18.67-5.402 18.67-16.187v-29.371c0-10.781-6.23-16.172-18.67-16.172h-221.51"/><path d="m1894.5 416.04c-11.61 0-17.42 6.223-17.42 18.66v319.58c0 12.445 5.81 18.668 17.42 18.668h40.31c9.97 0 14.95-6.223 14.95-18.668v-276.51h145.1c12.45 0 18.67-5.402 18.67-16.187v-29.371c0-10.781-6.22-16.172-18.67-16.172h-200.36"/><path d="m1654.3 799.34c-11.12 0-13.2 5.297-6.21 15.926l21.89 33.351c5.14 7.801 14.19 11.707 27.13 11.707h43.81c14.93 0 16.91-5.078 5.96-15.187l-39.31-36.348c-6.82-6.301-16.02-9.449-27.64-9.449h-25.63"/><path d="m2293.6 727.2c73.18 0 132.7-59.531 132.7-132.7 0-73.16-59.52-132.69-132.7-132.69-73.17 0-132.7 59.531-132.7 132.69 0 73.168 59.53 132.7 132.7 132.7m0 47.434c-99.48 0-180.11-80.656-180.11-180.13 0-99.473 80.63-180.12 180.11-180.12s180.12 80.652 180.12 180.12c0 99.477-80.64 180.13-180.12 180.13"/><path d="m1879.2 312.82c73.16 0 132.69-59.523 132.69-132.69 0-73.172-59.53-132.7-132.69-132.7-73.18 0-132.7 59.523-132.7 132.7 0 73.164 59.52 132.69 132.7 132.69m0 47.43c-99.48 0-180.13-80.644-180.13-180.12 0-99.481 80.65-180.13 180.13-180.13 99.47 0 180.11 80.644 180.11 180.13 0 99.473-80.64 180.12-180.11 180.12"/></g></g></svg>
