<?xml version="1.0" encoding="UTF-8"?>
<svg width="36.274" height="37.795" version="1.1" viewBox="0 0 36.274 37.795" xml:space="preserve" xmlns="http://www.w3.org/2000/svg" xmlns:cc="http://creativecommons.org/ns#" xmlns:dc="http://purl.org/dc/elements/1.1/" xmlns:rdf="http://www.w3.org/1999/02/22-rdf-syntax-ns#"><metadata><rdf:RDF><cc:Work rdf:about=""><dc:format>image/svg+xml</dc:format><dc:type rdf:resource="http://purl.org/dc/dcmitype/StillImage"/><dc:title/></cc:Work></rdf:RDF></metadata><g transform="matrix(.28076 0 0 -.28076 -6.5244e-5 37.417)"><g transform="scale(.1)"><g fill="#5ea8df"><path d="m28.18 889.03c-11.598 0-17.398 6.211-17.398 18.633v319.13c0 12.43 5.8007 18.65 17.398 18.65h86.742c76.223 0 127.8-15.41 154.72-46.23 26.933-30.82 40.39-74.65 40.39-131.48 0-56.85-13.457-100.84-40.39-131.97-26.922-31.164-78.496-46.735-154.72-46.735zm55.172 61.641h26.847c51.364 0 84.582 9.559 99.66 28.691 15.082 19.153 22.633 48.601 22.633 88.371 0 39.76-7.551 69.13-22.633 88.1-15.078 18.98-48.296 28.46-99.66 28.46h-26.847v-233.62"/><path d="m385.65 889.03c-11.593 0-17.394 6.211-17.394 18.633v319.13c0 12.43 5.801 18.65 17.394 18.65h213.25c12.422 0 18.641-5.39 18.641-16.15v-29.34c0-10.77-6.219-16.15-18.641-16.15h-158.08v-79.05h144.91c12.414 0 18.637-5.39 18.637-16.15v-29.32c0-10.77-6.223-16.15-18.637-16.15h-144.91v-92.462h166.04c12.422 0 18.633-5.391 18.633-16.168v-29.32c0-10.774-6.211-16.153-18.633-16.153h-221.21"/><path d="m703.78 889.03c-11.593 0-17.394 6.211-17.394 18.633v319.13c0 12.43 5.801 18.65 17.394 18.65h196.6c12.422 0 18.64-5.39 18.64-16.15v-29.34c0-10.77-6.218-16.15-18.64-16.15h-141.43v-86.51h121.04c12.434 0 18.645-5.38 18.645-16.14v-29.33c0-10.78-6.211-16.15-18.645-16.15h-121.04v-128.01c0-12.422-5.801-18.633-17.394-18.633h-37.782"/><path d="m996.07 889.03c-11.601 0-17.402 6.211-17.402 18.633v319.13c0 12.43 5.801 18.65 17.402 18.65h37.776c11.59 0 17.39-6.22 17.39-18.65v-319.13c0-12.422-5.8-18.633-17.39-18.633h-37.776"/><path d="m1.6758 755.44c-4.1211 10.946-0.6289 16.414 10.457 16.414h36.73c10.32 0 17.566-5.722 21.746-17.148l76.696-207.54c5.289-10.605 8.39-17.695 9.308-21.242 0.922-3.574 1.953-9.492 3.098-17.781h1.383c1.148 8.289 2.179 14.207 3.101 17.781 0.918 3.547 4.02 10.637 9.309 21.242l76.695 207.54c4.176 11.426 11.422 17.148 21.746 17.148h36.727c11.098 0 14.582-5.468 10.469-16.414l-118.03-319.87c-4.941-13.426-12.711-20.125-23.308-20.125h-34.801c-10.602 0-18.379 6.699-23.313 20.125l-118.02 319.87"/><path d="m382.47 415.45c-11.602 0-17.403 6.211-17.403 18.633v319.12c0 12.434 5.801 18.652 17.403 18.652h213.25c12.418 0 18.636-5.39 18.636-16.152v-29.34c0-10.765-6.218-16.148-18.636-16.148h-158.08v-79.047h144.91c12.422 0 18.64-5.391 18.64-16.152v-29.317c0-10.773-6.218-16.152-18.64-16.152h-144.91v-92.461h166.04c12.414 0 18.625-5.391 18.625-16.172v-29.316c0-10.774-6.211-16.153-18.625-16.153h-221.21"/><path d="m700.6 415.45c-11.601 0-17.402 6.211-17.402 18.633v319.12c0 12.434 5.801 18.652 17.402 18.652h40.254c9.954 0 14.914-6.218 14.914-18.652v-276.12h144.91c12.421 0 18.644-5.391 18.644-16.172v-29.316c0-10.774-6.223-16.153-18.644-16.153h-200.08"/></g><g fill="#ea2028"><path d="m463.94 1271.8c-11.097 0-13.168 5.29-6.211 15.91l21.872 33.3c5.128 7.78 14.168 11.69 27.089 11.69h43.739c14.914 0 16.898-5.07 5.972-15.17l-39.261-36.3c-6.797-6.29-15.996-9.43-27.598-9.43h-25.602"/><path d="m460.76 798.2c-11.102 0-13.172 5.293-6.211 15.914l21.871 33.297c5.125 7.782 14.168 11.692 27.09 11.692h43.742c14.906 0 16.898-5.071 5.965-15.168l-39.258-36.305c-6.801-6.289-16-9.43-27.602-9.43h-25.597"/><path d="m1099.2 726.16c73.07 0 132.5-59.437 132.5-132.5 0-73.066-59.43-132.5-132.5-132.5-73.06 0-132.51 59.434-132.51 132.5 0 73.067 59.448 132.5 132.51 132.5m0 47.36c-99.336 0-179.86-80.528-179.86-179.86s80.528-179.86 179.86-179.86c99.35 0 179.86 80.527 179.86 179.86s-80.51 179.86-179.86 179.86"/><path d="m685.4 312.37c73.055 0 132.51-59.441 132.51-132.51 0-73.05-59.453-132.5-132.51-132.5-73.062 0-132.51 59.45-132.51 132.5 0 73.071 59.445 132.51 132.51 132.51m0 47.363c-99.343 0-179.86-80.535-179.86-179.88 0-99.32 80.52-179.86 179.86-179.86 99.336 0 179.85 80.539 179.85 179.86 0 99.34-80.516 179.88-179.85 179.88"/></g></g></g></svg>
