<?xml version="1.0" encoding="UTF-8" standalone="no"?>
<!-- Created with Inkscape (http://www.inkscape.org/) -->
<svg id="svg3897" xmlns:rdf="http://www.w3.org/1999/02/22-rdf-syntax-ns#" xmlns="http://www.w3.org/2000/svg" height="53.612mm" width="50mm" version="1.1" xmlns:cc="http://creativecommons.org/ns#" xmlns:dc="http://purl.org/dc/elements/1.1/" viewBox="0 0 177.16522 189.9631">
 <defs id="defs3899">
  <clipPath id="clipPath3567" clipPathUnits="userSpaceOnUse">
   <path id="path3569" d="m0 0h841.89v1190.6h-841.89v-1190.6z"/>
  </clipPath>
 </defs>
 <metadata id="metadata3902">
  <rdf:RDF>
   <cc:Work rdf:about="">
    <dc:format>image/svg+xml</dc:format>
    <dc:type rdf:resource="http://purl.org/dc/dcmitype/StillImage"/>
    <dc:title/>
   </cc:Work>
  </rdf:RDF>
 </metadata>
 <g id="layer1" transform="translate(-234.27 -240.24)">
  <g id="g3834" transform="matrix(1.25 0 0 -1.25 -327.97 1671.7)">
   <g id="g3555" transform="translate(503.1 1145.2)">
    <path id="path3557" d="m0 0-6.504-9.826h4.564l7.071 9.826h-5.131z" fill="#ea2028"/>
   </g>
   <g id="g3559" transform="translate(503.13 1097.3)">
    <path id="path3561" d="m0 0-6.164-9.431 4.692 0.026 7.067 9.405h-5.595z" fill="#ea2028"/>
   </g>
   <g id="g3565" clip-path="url(#clipPath3567)">
    <g id="g3571" transform="translate(482.09 1084.8)">
     <path id="path3573" d="m0 0c-0.716 0.494-1.49 0.715-2.428 0.715-1.744 0-3.413-1.103-4.04-2.844l-0.004 0.001-9.262-24.053s-7.999 23.7-8.107 23.942c-0.605 1.686-2.194 2.788-3.892 2.848-0.936 0.032-1.718-0.161-2.452-0.631-1.352-0.782-2.057-1.97-2.111-3.516-0.021-0.602 0.075-1.157 0.256-1.661h-0.003l11.977-35.172 0.005 0.001c0.558-1.662 2.037-2.901 4.055-2.901 2.239 0 3.633 1.345 4.141 2.958l13.542 35.073-0.004 0.001c0.198 0.498 0.314 1.049 0.314 1.652 0 1.547-0.663 2.757-1.987 3.587" fill="#5ea8df"/>
    </g>
    <g id="g3575" transform="translate(563.22 1130.7)">
     <path id="path3577" d="m0 0c0 0.772-0.168 1.492-0.554 2.208-0.608 1.049-1.598 1.877-2.757 2.208-0.498 0.111-0.942 0.166-1.383 0.166-0.828 0-1.601-0.166-2.316-0.553-1.105-0.608-1.933-1.654-2.262-2.813-0.112-0.498-0.167-0.885-0.167-1.381v-37.907h0.004c0-2.044 1.32-3.922 3.306-4.527 0.498-0.11 0.942-0.165 1.381-0.165 0.829 0 1.548 0.165 2.265 0.55 1.103 0.609 1.929 1.603 2.26 2.817 0.158 0.476 0.217 0.901 0.22 1.325h0.003v37.907h-0.005c0.001 0.055 0.005 0.112 0.005 0.165" fill="#5ea8df"/>
    </g>
    <g id="g3579" transform="translate(543.82 1132.4)">
     <path id="path3581" d="m0 0c-0.497 0.111-0.885 0.166-1.38 0.166v-0.005s-16.202 0.005-16.254 0.005c-0.773 0-1.492-0.168-2.208-0.552-1.049-0.61-1.878-1.601-2.208-2.761-0.111-0.496-0.165-0.938-0.165-1.381v-34.745c0-0.774 0.194-1.614 0.578-2.328 0.609-1.05 1.601-1.878 2.761-2.208 0.497-0.11 0.938-0.165 1.382-0.165 0.826 0 1.599 0.165 2.316 0.551 1.104 0.609 1.932 1.653 2.262 2.815 0.112 0.496 0.166 0.885 0.166 1.379v14.282s9.946 0.009 9.994 0.009c0.725 0 1.484 0.217 2.155 0.579 0.986 0.571 1.765 1.503 2.077 2.592 0.102 0.467 0.155 0.884 0.155 1.298 0 0.776-0.155 1.503-0.52 2.176-0.572 1.038-1.552 1.815-2.643 2.126-0.467 0.104-0.832 0.156-1.297 0.156h-9.921v6.738h11.534c0.774 0 1.493 0.168 2.209 0.552 1.049 0.608 1.878 1.601 2.207 2.759 0.111 0.498 0.166 0.94 0.166 1.382 0 0.828-0.166 1.6-0.552 2.317-0.608 1.104-1.654 1.931-2.814 2.263" fill="#5ea8df"/>
    </g>
    <g id="g3583" transform="translate(510.78 1075.6)">
     <path id="path3585" d="m0 0c0.773 0 1.493 0.168 2.208 0.553 1.049 0.609 1.878 1.6 2.208 2.759 0.111 0.498 0.166 0.94 0.166 1.382 0 0.826-0.166 1.598-0.552 2.317-0.608 1.104-1.654 1.931-2.815 2.262-0.497 0.112-0.884 0.166-1.38 0.166v-0.006s-16.201 0.006-16.254 0.006c-0.772 0-1.492-0.168-2.207-0.553-1.05-0.608-1.878-1.599-2.209-2.76-0.11-0.497-0.165-0.939-0.165-1.381 0 0-0.008-34.952-0.008-35.006 0-0.773 0.203-1.491 0.587-2.206 0.609-1.051 1.6-1.879 2.76-2.209 0.497-0.11 0.94-0.167 1.382-0.167h16.279c0.773 0 1.493 0.169 2.208 0.553 1.049 0.609 1.878 1.602 2.208 2.76 0.111 0.496 0.166 0.94 0.166 1.382 0 0.826-0.166 1.6-0.552 2.316-0.608 1.105-1.654 1.933-2.815 2.263-0.497 0.111-0.884 0.166-1.38 0.166v-0.005h-11.37v9.734s10.027-0.003 10.077-0.003c0.726 0 1.401 0.229 2.074 0.591 0.985 0.572 1.763 1.503 2.074 2.592 0.102 0.467 0.156 0.883 0.156 1.298 0 0.778-0.156 1.505-0.519 2.177-0.572 1.038-1.553 1.814-2.644 2.125-0.466 0.106-0.832 0.157-1.296 0.157h-9.922v6.737h11.535z" fill="#5ea8df"/>
    </g>
    <g id="g3587" transform="translate(540.45 998.66)">
     <path id="path3589" d="m0 0c-9.499-7.694-23.487-6.229-31.182 3.273-7.695 9.497-6.225 23.484 3.274 31.178 9.498 7.694 23.486 6.229 31.178-3.269 7.697-9.502 6.23-23.489-3.27-31.182m-26.993 33.325c-8.878-7.193-10.252-20.262-3.061-29.137 7.19-8.879 20.265-10.252 29.142-3.062 8.877 7.191 10.247 20.266 3.055 29.143-7.189 8.873-20.261 10.245-29.136 3.056" stroke="#ea2028" fill="#ea2028"/>
    </g>
    <g id="g3591" transform="translate(572.83 1041.7)">
     <path id="path3593" d="m0 0c-11.966-2.114-23.424 5.893-25.544 17.861-2.117 11.963 5.893 23.422 17.859 25.54 11.965 2.118 23.423-5.894 25.542-17.855 2.116-11.968-5.891-23.425-17.857-25.546m-7.434 41.979c-11.182-1.979-18.668-12.687-16.685-23.865 1.977-11.185 12.686-18.669 23.866-16.692 11.182 1.981 18.67 12.692 16.688 23.872-1.98 11.179-12.689 18.665-23.869 16.685" stroke="#ea2028" fill="#ea2028"/>
    </g>
    <g id="g3595" transform="translate(496.96 1087.9)">
     <path id="path3597" d="m0 0 6.278 9.433h-4.006l0.022 9.812s10.005-0.01 10.054-0.01c0.726 0 1.403 0.159 2.075 0.52 0.985 0.571 1.764 1.503 2.075 2.592 0.103 0.467 0.154 0.883 0.154 1.299 0 0.777-0.154 1.502-0.517 2.176-0.571 1.037-1.554 1.815-2.644 2.126-0.467 0.105-0.833 0.156-1.298 0.156h-9.921v7.096h11.535c0.773 0 1.493 0.167 2.208 0.552 1.049 0.608 1.878 1.601 2.209 2.76 0.11 0.496 0.164 0.939 0.164 1.381 0 0.828-0.164 1.6-0.551 2.316-0.609 1.105-1.653 1.932-2.814 2.264-0.496 0.111-0.885 0.166-1.38 0.166v-0.006h-16.09c-0.054 0.001-0.112 0.006-0.165 0.006-0.773 0-1.492-0.168-2.208-0.553-1.048-0.608-1.878-1.601-2.208-2.761-0.109-0.495-0.165-0.938-0.165-1.38 0 0 0.027-35.311 0.027-35.364 0-0.772 0.167-1.494 0.552-2.208 0.61-1.05 1.601-1.879 2.761-2.208 0.496-0.11 0.938-0.165 1.38-0.165h0.026 2.447z" fill="#5ea8df"/>
    </g>
    <g id="g3599" transform="translate(511.99 1097.2)">
     <path id="path3601" d="m0 0c-0.496 0.111-0.885 0.166-1.38 0.166v-0.006h-2.353l-6.739-9.432h9.256c0.773 0 1.493 0.167 2.208 0.551 1.049 0.61 1.878 1.601 2.209 2.761 0.109 0.497 0.164 0.939 0.164 1.381 0 0.826-0.164 1.6-0.551 2.317-0.609 1.104-1.653 1.931-2.814 2.262" fill="#5ea8df"/>
    </g>
    <g id="g3603" transform="translate(464.35 1135)">
     <path id="path3605" d="m0 0s-7.059 0.004-7.079 0c-0.738-0.029-1.433-0.151-2.081-0.5-1.105-0.607-1.934-1.656-2.264-2.814-0.111-0.499-0.167-0.884-0.167-1.38 0-0.009 0.002-0.019 0.002-0.028 0 0-0.002-0.017-0.002-0.025v-38.05c0-0.774 0.167-1.548 0.553-2.209 0.608-1.159 1.599-1.931 2.814-2.317 0.444-0.111 0.885-0.167 1.38-0.167h6.645c14.722 0 22.772 8.706 22.772 23.745 0 17.924-15.07 23.745-22.573 23.745m-1.944-38.034v28.495s14.848 0.759 14.848-14.206c0-16.109-11.775-14.289-14.848-14.289" fill="#5ea8df"/>
    </g>
    <g id="g3607" transform="translate(549.77 1047.8)">
     <path id="path3609" d="m0 0c-0.607 1.104-1.652 1.933-2.812 2.263-0.497 0.111-0.885 0.165-1.381 0.165v-0.004h-14.505s-0.013 30.477-0.013 30.561c0 0.773-0.179 1.49-0.564 2.211-0.608 1.047-1.601 1.875-2.764 2.204-0.494 0.112-0.936 0.164-1.378 0.164-0.827 0-1.599-0.164-2.317-0.549-1.103-0.607-1.933-1.656-2.264-2.816-0.109-0.498-0.165-0.883-0.165-1.379v-35.259c0-0.773 0.194-1.482 0.578-2.196 0.609-1.052 1.601-1.88 2.761-2.209 0.497-0.111 0.938-0.168 1.382-0.168 0.007 0 0.015 0.004 0.024 0.004v-0.004h19.225v0.008c0.055-0.003 0.111-0.008 0.165-0.008 0.773 0 1.493 0.17 2.208 0.554 1.05 0.608 1.878 1.602 2.208 2.759 0.109 0.496 0.166 0.941 0.166 1.382 0 0.827-0.166 1.6-0.554 2.317" fill="#5ea8df"/>
    </g>
   </g>
  </g>
 </g>
</svg>
